<svg xmlns="http://www.w3.org/2000/svg" viewBox="0 0 512 512">
  <rect width="512" height="512" fill="#fdc92e"/>
  <g transform="translate(82,82) scale(0.68)">
    <rect x="119" y="109" width="278" height="312" rx="14" fill="#2d1e2f" opacity="0.35"/>
    <rect x="112" y="100" width="278" height="312" rx="14" fill="#ff4d8d"/>
    <path d="M112 114 Q112 100 126 100 L150 100 L150 412 L126 412 Q112 412 112 398 Z" fill="rgba(0,0,0,0.2)"/>
    <rect x="166" y="158" width="188" height="13" rx="6" fill="rgba(255,255,255,0.92)"/>
    <rect x="166" y="185" width="158" height="13" rx="6" fill="rgba(255,255,255,0.72)"/>
    <rect x="166" y="212" width="175" height="13" rx="6" fill="rgba(255,255,255,0.72)"/>
    <rect x="166" y="239" width="145" height="13" rx="6" fill="rgba(255,255,255,0.55)"/>
    <rect x="166" y="266" width="168" height="13" rx="6" fill="rgba(255,255,255,0.55)"/>
    <rect x="166" y="293" width="138" height="13" rx="6" fill="rgba(255,255,255,0.55)"/>
    <rect x="166" y="320" width="160" height="13" rx="6" fill="rgba(255,255,255,0.45)"/>
    <rect x="166" y="347" width="128" height="13" rx="6" fill="rgba(255,255,255,0.4)"/>
  </g>
</svg>
